<svg width="44" height="44" viewBox="0 0 44 44" fill="none" xmlns="http://www.w3.org/2000/svg">
<rect width="43.5" height="43.499" rx="8" transform="matrix(-1 0 0 1 44 0)" fill="#F2F7FC"/>
<rect width="23.5" height="23.499" rx="8.26855" transform="matrix(-1 0 0 1 34 10)" fill="#F2F7FC"/>
<path d="M22.25 12C25.9766 12 29 14.8777 29 18.4219C29 22.5 24.5 28.9627 22.8477 31.1948C22.7791 31.2891 22.6892 31.3657 22.5853 31.4186C22.4814 31.4715 22.3665 31.499 22.25 31.499C22.1335 31.499 22.0186 31.4715 21.9147 31.4186C21.8108 31.3657 21.7209 31.2891 21.6523 31.1948C20 28.9636 15.5 22.5033 15.5 18.4219C15.5 14.8777 18.5234 12 22.25 12Z" stroke="#E80505" stroke-width="1.5" stroke-linecap="round" stroke-linejoin="round"/>
<path d="M22.25 21.0154C21.0332 21.0154 20.0469 20.0291 20.0469 18.8124C20.0469 17.5957 21.0332 16.6094 22.25 16.6094C23.4668 16.6094 24.4531 17.5957 24.4531 18.8124C24.4531 20.0291 23.4668 21.0154 22.25 21.0154Z" stroke="#E80505" stroke-width="1.5" stroke-linecap="round" stroke-linejoin="round"/>
</svg>
